<?xml version="1.0" encoding="UTF-8" standalone="no"?>
<!DOCTYPE svg PUBLIC "-//W3C//DTD SVG 1.1//EN" "http://www.w3.org/Graphics/SVG/1.1/DTD/svg11.dtd">
<svg width="100%" height="100%" viewBox="0 0 1080 1080" version="1.1" xmlns="http://www.w3.org/2000/svg" xmlns:xlink="http://www.w3.org/1999/xlink" xml:space="preserve" xmlns:serif="http://www.serif.com/" style="fill-rule:evenodd;clip-rule:evenodd;stroke-linejoin:round;stroke-miterlimit:2;">
    <circle cx="540" cy="540" r="540" style="fill:white;"/>
    <g transform="matrix(44.8333,0,0,44.8333,181.333,181.333)">
        <path d="M2,3.366L2,2C2,0.903 2.903,0 4,0L9.5,0L13.372,3.872L13.265,4.002L13.087,4.328L13,4.5L11,4.5C10.177,4.5 9.5,3.823 9.5,3L9.5,1L4,1C3.451,1 3,1.451 3,2L3,4.605L2.913,4.328L2.735,4.002L2.502,3.719L2.219,3.486L2,3.366ZM14,12.634L14,14C14,15.097 13.097,16 12,16L4,16C2.903,16 2,15.097 2,14L2,12.634L2.219,12.514L2.502,12.281L2.735,11.998L2.913,11.672L3,11.395L3,14C3,14.549 3.451,15 4,15L12,15C12.549,15 13,14.549 13,14L13,11.395L13.087,11.672L13.265,11.998L13.498,12.281L13.781,12.514L14,12.634Z"/>
    </g>
    <g transform="matrix(65.4835,0,0,65.4835,68.8241,16.1319)">
        <path d="M0.146,8.354C0.052,8.26 -0.001,8.133 -0.001,8C-0.001,7.867 0.052,7.74 0.146,7.646L2.146,5.646C2.24,5.552 2.367,5.499 2.5,5.499C2.775,5.499 3.001,5.725 3.001,6C3.001,6.133 2.948,6.26 2.854,6.354L1.707,7.5L5.5,7.5C5.774,7.5 6,7.726 6,8C6,8.274 5.774,8.5 5.5,8.5L1.707,8.5L2.854,9.646C2.948,9.74 3.001,9.867 3.001,10C3.001,10.275 2.775,10.501 2.5,10.501C2.367,10.501 2.24,10.448 2.146,10.354L0.146,8.354ZM8.391,8C8.391,7.726 8.616,7.5 8.891,7.5L12.684,7.5L11.537,6.354C11.443,6.26 11.39,6.133 11.39,6C11.39,5.725 11.616,5.499 11.891,5.499C12.023,5.499 12.151,5.552 12.245,5.646L14.245,7.646C14.339,7.74 14.392,7.867 14.392,8C14.392,8.133 14.339,8.26 14.245,8.354L12.245,10.354C12.151,10.448 12.023,10.501 11.891,10.501C11.616,10.501 11.39,10.275 11.39,10C11.39,9.867 11.443,9.74 11.537,9.646L12.684,8.5L8.891,8.5C8.616,8.5 8.391,8.274 8.391,8" style="fill-rule:nonzero;"/>
    </g>
</svg>
